# xmcd CD database file
#
# Track frame offsets:
#	150
#	33090
#	63295
#	80322
#	125305
#	145810
#	165300
#	172475
#	217235
#	244902
#	276210
#
# Disc length: 4031 seconds
#
# Revision: 0
# Processed by: cddbd v1.4PL0 Copyright (c) Steve Scherf et al.
# Submitted via: CDex 1.51
#
DISCID=9c0fbd0b
DTITLE=John Horler - Gentle Piece
DYEAR=1996
DGENRE=Jazz
TTITLE0=This is my lovely day
TTITLE1=Astra
TTITLE2=Melancholia
TTITLE3=Daisy
TTITLE4=All the things you are
TTITLE5=My funny valentine
TTITLE6=Interlude (solo)
TTITLE7=Gentle piece
TTITLE8=Two bits
TTITLE9=Solid silver
TTITLE10=Whisper not
EXTD=YEAR: 1996
EXTT0=
EXTT1=
EXTT2=
EXTT3=
EXTT4=
EXTT5=
EXTT6=
EXTT7=
EXTT8=
EXTT9=
EXTT10=
PLAYORDER=
